<?xml version="1.0" encoding="UTF-8"?>
<svg id="Layer_2" data-name="Layer 2" xmlns="http://www.w3.org/2000/svg" viewBox="0 0 65.74 65.74">
  <defs>
    <style>
      .cls-1 {
        fill: #3d4b86;
      }

      .cls-2 {
        fill: #acb8da;
      }
    </style>
  </defs>
  <g id="Layer_1-2" data-name="Layer 1">
    <g>
      <rect class="cls-2" width="65.74" height="65.74" rx="30" ry="30"/>
      <path class="cls-1" d="M21.04,12.68l4.39,8.63c.4.78.19,1.89-.46,2.49-.97.89-2.16,2.11-2.04,2.59.2.81,3.63,8.68,4.24,9.29s9.69,7.27,11.71,7.07c1.16-.12,2.39-1.43,3.22-2.53.61-.8,1.82-1.05,2.69-.55l8.43,4.82c1.44.82,1.57,2.36.29,3.42l-8.35,6.89c-.53.44-1.25.59-1.91.39-3.29-.96-13.42-4.42-20.93-12.43-9.09-9.69-12.52-19.99-12.12-21.61.28-1.12,4.75-6.04,7.45-8.94,1.12-1.2,2.64-.98,3.38.48Z"/>
    </g>
  </g>
</svg>