<?xml version="1.0" encoding="UTF-8"?>
<svg id="Layer_2" data-name="Layer 2" xmlns="http://www.w3.org/2000/svg" xmlns:xlink="http://www.w3.org/1999/xlink" viewBox="0 0 60 77.33">
  <defs>
    <style>
      .cls-1 {
        fill: #ebf3e5;
      }

      .cls-2 {
        fill: #3d4b8c;
      }

      .cls-3 {
        stroke: #80987c;
        stroke-linecap: round;
        stroke-miterlimit: 10;
        stroke-width: .35px;
      }

      .cls-3, .cls-4 {
        fill: none;
      }

      .cls-5 {
        clip-path: url(#clippath-1);
      }

      .cls-6 {
        fill: #231f20;
      }

      .cls-7 {
        fill: #2e1f26;
      }

      .cls-8 {
        fill: #b1bddf;
      }

      .cls-9 {
        clip-path: url(#clippath);
      }
    </style>
    <clipPath id="clippath">
      <rect class="cls-4" width="60" height="77.33"/>
    </clipPath>
    <clipPath id="clippath-1">
      <rect class="cls-4" width="60" height="77.33"/>
    </clipPath>
  </defs>
  <g id="Layer_2-2" data-name="Layer 2">
    <g id="Artwork_7" data-name="Artwork 7">
      <g class="cls-9">
        <g class="cls-5">
          <path class="cls-1" d="M59.72,29.58c-.02-3.88-.33-7.7-1.43-11.29C54.68,6.55,41.49,0,29.84,0,21.62,0,13.19,2.84,7.27,8.67,3.13,12.75,1.92,18.16,1.32,23.73c-.76,7.12-.56,14.45-.72,21.6-.13,5.5-.28,11-.35,16.51-.06,4.43-.34,8.93-.22,13.36.05,1.89.9,1.85,2.35,1.88,1.17.03,2.34.04,3.51.06,3.66.05,7.33.07,10.99.09,9.1.05,18.2.07,27.3.05,3.35,0,6.71-.02,10.06-.06,1.15-.01,3.18.34,4.28-.13.4-.17.74-.48.97-1,.89-2.01.33-5.19.33-7.31,0-3.22,0-6.44,0-9.65,0-9.85-.04-19.7-.09-29.55"/>
          <path class="cls-3" d="M25.02,28.14c1.27,2.73,2.54,5.91,3.59,9.52,1.94,6.64,2.55,12.6,2.66,17.3"/>
          <path class="cls-3" d="M38.85,28.35c-1.46,2.73-2.94,5.92-4.24,9.57-2.39,6.7-3.42,12.8-3.85,17.63"/>
          <path class="cls-3" d="M21.73,29.59c1.6,2.55,3.25,5.55,4.74,9.01,2.74,6.35,4.09,12.19,4.77,16.84"/>
          <path class="cls-3" d="M33.7,27.81c-.86,2.89-1.65,6.22-2.16,9.94-.95,6.85-.69,12.84-.11,17.5"/>
          <path class="cls-3" d="M41.43,30.8c-1.73,2.46-3.22,4.43-4.89,7.8-3.07,6.2-4.71,11.96-5.64,16.57"/>
          <path class="cls-3" d="M19.46,32c1.88,2.35,3.22,3.91,5.09,7.17,3.44,5.99,5.45,11.65,6.65,16.19"/>
          <path class="cls-3" d="M29.44,26.92c.41,1.18.29,2.47.33,3.72.26,8.11.88,16.2,1.08,24.32"/>
          <path class="cls-2" d="M28.97,23.99c.87.08,1.5.85,1.42,1.72-.08.87-.85,1.5-1.72,1.42-.87-.08-1.5-.85-1.42-1.72.08-.87.85-1.5,1.72-1.42"/>
          <path class="cls-2" d="M31.55,25.5c-.38.79-1.32,1.12-2.1.74-.79-.38-1.12-1.32-.74-2.1.38-.79,1.32-1.12,2.1-.74.79.38,1.12,1.32.74,2.1"/>
          <path class="cls-2" d="M29.24,27.41c-.61-.62-.6-1.62.02-2.23.62-.61,1.62-.6,2.23.02.61.62.6,1.62-.02,2.23-.62.61-1.62.6-2.23-.02"/>
          <path class="cls-2" d="M28.24,24.59c.79-.36,1.73-.01,2.09.78.36.79.01,1.73-.78,2.09-.79.36-1.73.01-2.09-.78-.36-.79-.01-1.73.78-2.09"/>
          <path class="cls-8" d="M23.83,26.07c.74.03,1.31.65,1.29,1.39-.03.74-.65,1.32-1.39,1.29-.74-.03-1.32-.65-1.29-1.39.03-.74.65-1.32,1.39-1.29"/>
          <path class="cls-8" d="M25.1,25.76c.5.54.47,1.39-.07,1.89-.54.5-1.39.47-1.89-.07-.5-.54-.47-1.39.07-1.89.54-.5,1.39-.47,1.89.07"/>
          <path class="cls-8" d="M26.22,26.44c-.03.74-.65,1.31-1.39,1.29-.74-.03-1.32-.65-1.29-1.39.03-.74.65-1.32,1.39-1.29.74.03,1.32.65,1.29,1.39"/>
          <path class="cls-8" d="M26.53,27.71c-.54.5-1.39.47-1.89-.07-.5-.54-.47-1.39.07-1.89.54-.5,1.39-.47,1.89.07.5.54.47,1.39-.07,1.89"/>
          <path class="cls-2" d="M20.42,27.03c.87.08,1.5.85,1.42,1.72-.08.87-.85,1.5-1.72,1.42-.87-.08-1.5-.85-1.42-1.72.08-.87.85-1.5,1.72-1.42"/>
          <path class="cls-2" d="M23,28.54c-.38.79-1.32,1.12-2.1.74-.79-.38-1.12-1.32-.74-2.1.38-.79,1.32-1.12,2.1-.74.79.38,1.12,1.32.74,2.1"/>
          <path class="cls-2" d="M20.69,30.45c-.61-.62-.6-1.62.02-2.23.62-.61,1.62-.6,2.23.02.61.62.6,1.62-.02,2.23-.62.61-1.62.6-2.23-.02"/>
          <path class="cls-2" d="M19.69,27.63c.79-.36,1.73-.01,2.09.78.36.79.01,1.73-.78,2.09-.79.36-1.73.01-2.09-.78-.36-.79-.01-1.73.78-2.09"/>
          <path class="cls-2" d="M37.92,26.02c.87.08,1.5.85,1.42,1.72-.08.87-.85,1.5-1.72,1.42-.87-.08-1.5-.85-1.42-1.72.08-.87.85-1.5,1.72-1.42"/>
          <path class="cls-2" d="M40.5,27.53c-.38.79-1.32,1.12-2.1.74-.79-.38-1.12-1.32-.74-2.1.38-.79,1.32-1.12,2.1-.74.79.38,1.12,1.32.74,2.1"/>
          <path class="cls-2" d="M38.2,29.43c-.61-.62-.6-1.62.02-2.23.62-.61,1.62-.6,2.23.02.61.62.6,1.62-.02,2.23-.62.61-1.62.6-2.23-.02"/>
          <path class="cls-2" d="M37.2,26.62c.79-.36,1.73-.01,2.09.78.36.79.01,1.73-.78,2.09-.79.36-1.73.01-2.09-.78-.36-.79-.01-1.73.78-2.09"/>
          <path class="cls-8" d="M33.87,25.74c.54.51.57,1.35.06,1.89-.51.54-1.35.57-1.89.06-.54-.51-.57-1.35-.06-1.89.51-.54,1.35-.57,1.89-.06"/>
          <path class="cls-8" d="M35.03,26.34c.02.74-.56,1.36-1.3,1.38-.74.02-1.36-.56-1.38-1.3-.02-.74.56-1.36,1.3-1.38.74-.02,1.36.56,1.38,1.3"/>
          <path class="cls-8" d="M35.43,27.59c-.51.54-1.35.57-1.89.06-.54-.51-.57-1.35-.06-1.89.51-.54,1.35-.57,1.89-.06.54.51.57,1.35.06,1.89"/>
          <path class="cls-8" d="M34.83,28.75c-.74.02-1.36-.56-1.38-1.3-.02-.74.56-1.36,1.3-1.38.74-.02,1.36.56,1.38,1.3.02.74-.56,1.36-1.3,1.38"/>
          <path class="cls-8" d="M18.45,30.87c.74.03,1.32.65,1.29,1.39-.03.74-.65,1.32-1.39,1.29-.74-.03-1.32-.65-1.29-1.39.03-.74.65-1.32,1.39-1.29"/>
          <path class="cls-8" d="M19.72,30.56c.5.54.47,1.39-.07,1.89-.54.5-1.39.47-1.89-.07-.5-.54-.47-1.39.07-1.89.54-.5,1.39-.47,1.89.07"/>
          <path class="cls-8" d="M20.84,31.24c-.03.74-.65,1.32-1.39,1.29-.74-.03-1.32-.65-1.29-1.39.03-.74.65-1.32,1.39-1.29.74.03,1.32.65,1.29,1.39"/>
          <path class="cls-8" d="M21.15,32.51c-.54.5-1.39.47-1.89-.07s-.47-1.39.07-1.89c.54-.5,1.39-.47,1.89.07s.47,1.39-.07,1.89"/>
          <path class="cls-8" d="M41.79,30.19c.2.71-.21,1.45-.92,1.65-.71.2-1.45-.21-1.65-.92-.2-.71.21-1.45.92-1.66.71-.2,1.45.21,1.66.92"/>
          <path class="cls-8" d="M42.48,31.31c-.36.65-1.18.88-1.82.52-.65-.36-.88-1.18-.52-1.82.36-.65,1.18-.88,1.82-.52.65.36.88,1.18.52,1.82"/>
          <path class="cls-8" d="M42.18,32.58c-.71.2-1.45-.21-1.65-.92s.21-1.45.92-1.65c.71-.2,1.45.21,1.66.92.2.71-.21,1.45-.92,1.66"/>
          <path class="cls-8" d="M41.07,33.27c-.65-.36-.88-1.18-.52-1.82.36-.65,1.18-.88,1.82-.52.65.36.88,1.18.52,1.82-.36.65-1.18.88-1.82.52"/>
          <path class="cls-3" d="M25.11,33.43c1.13,1.79,2.26,3.87,3.19,6.23,1.72,4.34,2.27,8.25,2.36,11.33"/>
          <path class="cls-3" d="M37.41,33.57c-1.3,1.79-2.62,3.88-3.77,6.27-2.13,4.39-3.04,8.38-3.42,11.54"/>
          <path class="cls-3" d="M22.19,34.38c1.42,1.67,2.89,3.63,4.21,5.9,2.44,4.15,3.64,7.98,4.24,11.03"/>
          <path class="cls-3" d="M32.83,33.22c-.77,1.89-1.46,4.07-1.92,6.51-.84,4.48-.61,8.41-.09,11.46"/>
          <path class="cls-3" d="M39.71,35.17c-1.54,1.61-2.86,2.9-4.35,5.11-2.73,4.06-4.19,7.83-5.01,10.85"/>
          <path class="cls-3" d="M20.17,35.96c1.67,1.54,2.86,2.56,4.53,4.69,3.06,3.92,4.84,7.63,5.91,10.6"/>
          <path class="cls-3" d="M29.05,32.63c.37.77.26,1.62.3,2.44.23,5.31.78,10.61.96,15.92"/>
          <path class="cls-2" d="M32.33,30.72c.57.04.99.7.93,1.47-.05.77-.56,1.37-1.13,1.33-.57-.04-.99-.7-.93-1.47.05-.77.56-1.37,1.13-1.33"/>
          <path class="cls-2" d="M34.35,32.19c-.23.52-.99.69-1.7.37-.71-.32-1.09-.99-.86-1.51.23-.52.99-.69,1.7-.37.71.32,1.09.99.86,1.51"/>
          <path class="cls-2" d="M32.28,33.58c-.41-.4-.31-1.17.23-1.73.54-.56,1.31-.69,1.72-.29.41.4.31,1.17-.23,1.73-.54.56-1.31.69-1.72.29"/>
          <path class="cls-2" d="M31.68,31.16c.51-.25,1.2.11,1.54.81.34.7.2,1.46-.32,1.71-.51.25-1.2-.11-1.54-.81-.34-.7-.2-1.46.32-1.71"/>
          <path class="cls-8" d="M21.6,33.24c.5-.11.91.31.9.95s-.42,1.24-.92,1.35c-.5.11-.91-.31-.9-.95s.42-1.24.92-1.35"/>
          <path class="cls-8" d="M22.51,33.02c.43.28.42.86-.03,1.31-.45.44-1.17.58-1.6.3-.43-.28-.42-.86.03-1.31.45-.44,1.17-.58,1.6-.3"/>
          <path class="cls-8" d="M23.3,33.51c.11.5-.31.91-.95.9-.63,0-1.24-.42-1.35-.92-.11-.5.31-.91.95-.9.63,0,1.24.42,1.35.92"/>
          <path class="cls-8" d="M23.52,34.42c-.28.43-.86.42-1.31-.03-.44-.45-.58-1.17-.3-1.6.28-.43.86-.42,1.31.03.44.45.58,1.17.3,1.6"/>
          <path class="cls-2" d="M24.9,31.99c.57.04.99.7.93,1.47-.05.77-.56,1.37-1.13,1.33-.57-.04-.99-.7-.93-1.47.05-.77.56-1.37,1.13-1.33"/>
          <path class="cls-2" d="M26.92,33.45c-.23.52-.99.69-1.7.37-.71-.32-1.09-.99-.86-1.51.23-.52.99-.69,1.7-.37s1.09.99.86,1.51"/>
          <path class="cls-2" d="M24.85,34.85c-.41-.4-.31-1.17.23-1.73.54-.56,1.31-.69,1.72-.29.41.4.31,1.17-.23,1.73-.54.56-1.31.69-1.72.29"/>
          <path class="cls-2" d="M24.24,32.43c.51-.25,1.2.11,1.54.81.34.7.2,1.46-.32,1.71-.51.25-1.2-.11-1.54-.81-.34-.7-.2-1.46.32-1.71"/>
          <path class="cls-2" d="M40.81,33.02c.57.04.99.7.93,1.47-.05.77-.56,1.37-1.13,1.33-.57-.04-.99-.7-.93-1.47.06-.77.56-1.37,1.13-1.33"/>
          <path class="cls-2" d="M42.84,34.49c-.23.52-.99.69-1.7.37-.71-.32-1.09-.99-.86-1.51.23-.52.99-.69,1.7-.37.71.32,1.09.99.86,1.51"/>
          <path class="cls-2" d="M40.77,35.89c-.41-.4-.31-1.17.23-1.73.54-.56,1.31-.69,1.72-.29.41.4.31,1.17-.23,1.73-.54.56-1.31.69-1.72.29"/>
          <path class="cls-2" d="M40.16,33.47c.51-.25,1.2.11,1.54.81.34.7.2,1.46-.32,1.71-.51.25-1.2-.11-1.54-.81s-.2-1.46.32-1.71"/>
          <path class="cls-8" d="M29.36,31.15c.37.34.38,1.06.03,1.6s-.93.7-1.3.35c-.37-.34-.38-1.06-.03-1.6.35-.54.93-.7,1.3-.35"/>
          <path class="cls-8" d="M30.37,31.66c.02.5-.48,1.02-1.11,1.15-.63.13-1.15-.17-1.17-.67-.02-.5.48-1.02,1.11-1.15.63-.13,1.15.17,1.17.67"/>
          <path class="cls-8" d="M30.72,32.73c-.34.37-1.06.38-1.6.03-.54-.35-.7-.93-.35-1.3.34-.37,1.06-.38,1.6-.03.54.35.7.93.35,1.3"/>
          <path class="cls-8" d="M30.21,33.74c-.5.02-1.02-.48-1.15-1.11-.13-.63.17-1.15.67-1.17.5-.02,1.02.48,1.15,1.11.13.63-.17,1.15-.67,1.17"/>
          <path class="cls-8" d="M37.15,31.52c.38.41.44,1.15.12,1.64-.31.5-.88.57-1.26.16-.38-.41-.44-1.15-.12-1.64.31-.5.88-.57,1.26-.16"/>
          <path class="cls-8" d="M38.2,31.97c-.02.56-.5,1.12-1.07,1.25-.57.13-1.02-.22-1-.78.02-.56.5-1.12,1.07-1.25.57-.13,1.02.22,1,.78"/>
          <path class="cls-8" d="M38.62,33.03c-.41.38-1.15.44-1.64.12-.5-.31-.57-.88-.16-1.26.41-.38,1.15-.44,1.64-.12s.57.88.16,1.26"/>
          <path class="cls-8" d="M38.17,34.07c-.56-.02-1.12-.5-1.25-1.07-.13-.57.22-1.02.78-1,.56.02,1.12.5,1.25,1.07.13.57-.22,1.02-.78,1"/>
          <path class="cls-2" d="M20.93,35.63c.03.57-.57,1.07-1.34,1.11-.77.04-1.43-.38-1.46-.95-.03-.57.57-1.07,1.34-1.11.77-.04,1.43.38,1.46.95"/>
          <path class="cls-2" d="M19.71,37.8c-.55-.16-.81-.9-.59-1.64.22-.74.85-1.21,1.39-1.05.55.16.81.9.59,1.64-.22.74-.85,1.21-1.39,1.05"/>
          <path class="cls-2" d="M18.09,35.91c.34-.46,1.12-.45,1.74.01.62.46.85,1.21.51,1.67-.34.46-1.12.45-1.74-.01-.62-.46-.85-1.21-.51-1.67"/>
          <path class="cls-7" d="M7.65,13.99c.25.13.48.39.57.7-.43-.21-.88-.15-1.13.34-.26.52-.04,1.04.69,1.4l.89.44.56-1.12.5.31-.53,1.07,3.27,1.62.67-.46-1.15,2.32-.08-.68-3.28-1.63-.33.49-.4-.2.22-.55-.47-.23c-1.45-.72-1.88-1.93-1.31-3.08.39-.78.93-.92,1.35-.74"/>
          <path class="cls-7" d="M12.24,9.56l4.05,4.91.67-.06-1.86,1.53.18-.64-4.11-4.98-.75.28c.28-.61.79-1.41,1.26-1.82l.56.78Z"/>
          <path class="cls-7" d="M22.95,8.83c.52,1.36,0,2.76-1.4,3.3-1.25.48-2.5,0-3.05-1.42-.56-1.47.11-2.74,1.43-3.25,1.27-.49,2.52.07,3.02,1.37M19.69,10.05c.47,1.23,1.17,1.68,1.77,1.45.5-.19.78-.78.37-1.85-.51-1.33-1.18-1.73-1.78-1.5-.55.21-.75.84-.35,1.9"/>
          <polygon class="cls-7" points="32.19 5.88 33.9 5.9 33.36 6.26 31.49 10.73 30.08 7.33 28.6 10.7 26.74 6.18 26.19 5.82 28.65 5.84 28.11 6.17 28.99 8.68 29.78 6.61 29.61 6.2 29.08 5.85 31.49 5.88 30.95 6.2 31.82 8.78 32.74 6.21 32.19 5.88"/>
          <path class="cls-7" d="M40.4,11.41c-.22.58-1.08,1.23-2.29.76-1.18-.45-1.71-1.61-1.19-2.98.59-1.55,1.99-1.99,3.18-1.54,1.02.39,1.36,1.24,1.01,2.16-.2.51-.44.56-.66.48l-2.28-.87c-.39,1.03-.08,1.73.68,2.03.56.22,1.15.14,1.54-.04M38.39,8.99l1.47.57c.07-.02.14-.14.19-.27.17-.46.05-.84-.33-.98-.42-.16-.95.06-1.33.69"/>
          <path class="cls-7" d="M46.16,12.78l-1.97,2.38.28.71-1.96-1.61.65.07,2.28-2.77-.41-.57c.56.1,1.33.35,1.87.66-.13.28-.45.76-.75,1.12M47.99,13.5c-.46.56-1.24.54-1.45.49.18-.1.36-.24.46-.36.21-.26.2-.52-.03-.7-.19-.15-.48-.21-.73-.17.66-.62,1.32-.57,1.7-.25.35.29.33.66.04,1.01"/>
          <path class="cls-7" d="M52.22,20.1c-.2.1-.46.11-.67.06.22-.37.34-.88.09-1.35-.2-.39-.51-.47-.73-.36-.69.36.26,2.22-.96,2.85-.68.35-1.61.08-2.18-1.03-.5-.97-.29-1.7.2-1.96.28-.14.52-.08.68.04-.37.37-.64.93-.34,1.5.22.42.56.51.8.38.68-.35-.24-2.22,1.02-2.88.79-.41,1.7,0,2.22,1.02.42.81.32,1.49-.13,1.72"/>
          <path class="cls-7" d="M27.61,14.59v4.39c.11.06.29.13.49.13.54,0,.85-.47.85-1.33,0-.79-.26-1.18-.67-1.18-.22,0-.42.11-.59.25.07-.42.43-.88,1.07-.88.72,0,1.23.59,1.23,1.61,0,1.32-.85,2.03-1.92,2.03-.62,0-1.13-.23-1.42-.41v-4.77l-.56-.19c.35-.19,1-.38,1.57-.39l-.05.75Z"/>
          <path class="cls-7" d="M34.02,16.11l-.4.27-1.12,3c-.31.82-.75,1.63-1.55,1.63-.57,0-.83-.42-.83-.76,0-.17.07-.29.15-.39.11.2.34.39.7.39.49,0,.85-.37,1.05-.82-.16,0-.32-.02-.39-.04l-1.18-3.07-.39-.22h1.86l-.41.27.8,2.28.8-2.29-.44-.26h1.35Z"/>
          <polygon class="cls-7" points="10.6 63.55 12.3 63.55 11.77 63.91 9.95 68.4 8.5 65.02 7.06 68.4 5.15 63.91 4.59 63.55 7.06 63.55 6.52 63.88 7.43 66.38 8.19 64.3 8.01 63.89 7.49 63.55 9.9 63.55 9.36 63.88 10.26 66.45 11.15 63.87 10.6 63.55"/>
          <path class="cls-7" d="M16.87,61.37v6.47l.51.32h-2.36l.55-.35v-6.56l-.76-.26c.57-.25,1.44-.51,2.12-.53l-.06.91ZM19.71,64.72v3.09l.57.36h-2.37l.5-.31v-2.95c0-.5-.19-.72-.64-.72-.37,0-.68.18-.88.33.24-.7.85-1.16,1.62-1.16s1.21.48,1.21,1.36"/>
          <path class="cls-7" d="M25.13,67.81l.55.36h-2.41l.56-.36v-3.6l-.6-.2c.47-.26,1.22-.53,1.91-.6v4.41ZM25.26,61.67c0,.36-.22.7-.79.7s-.78-.34-.78-.7.21-.71.78-.71.79.36.79.71"/>
          <path class="cls-7" d="M30.62,63.55h1.3v.58h-1.3v2.46c0,.53.14.79.58.79.39,0,.61-.19.75-.36,0,.05.03.13.03.2,0,.54-.47,1.06-1.35,1.06s-1.34-.47-1.34-1.41v-2.74l-.72-.12c.41-.5,1.15-1.18,1.99-1.7l.05,1.23Z"/>
          <path class="cls-7" d="M36.78,64.52v3.32l.52.32h-2.36l.54-.35v-3.6l-.6-.21c.41-.23,1.08-.52,1.76-.64.07.22.15.69.15,1.16M39.64,64.72v3.09l.57.36h-2.37l.5-.32v-2.94c0-.5-.19-.7-.64-.7-.37,0-.68.16-.88.31.21-.58.73-1.16,1.61-1.16.8,0,1.22.48,1.22,1.36"/>
          <path class="cls-7" d="M47.25,66.75c0,.62-.57,1.53-1.86,1.53s-2.17-.89-2.17-2.36c0-1.66,1.14-2.57,2.42-2.57,1.09,0,1.72.67,1.72,1.66,0,.55-.21.68-.45.68h-2.44c0,1.1.55,1.65,1.36,1.65.6,0,1.12-.28,1.42-.58M44.5,65.21h1.58c.06-.04.08-.19.08-.32,0-.49-.25-.8-.66-.8-.45,0-.87.4-.99,1.12"/>
          <path class="cls-7" d="M55.26,63.55l-.55.36-1.52,4.08c-.42,1.11-1.02,2.22-2.11,2.22-.78,0-1.13-.58-1.13-1.03,0-.23.1-.4.2-.53.16.27.47.53.96.53.67,0,1.16-.5,1.43-1.11-.21,0-.43-.03-.54-.06l-1.61-4.17-.53-.29h2.52l-.56.36,1.09,3.1,1.09-3.11-.6-.35h1.83Z"/>
          <path class="cls-6" d="M17.78,50.34v-.68c0-.38,0-.87-.03-1.19h1.38v.42c-.26-.03-.6-.03-.92-.03v.68c.3,0,.61,0,.85-.03v.45c-.24-.02-.55-.03-.85-.03v1.2c.32,0,.66,0,.92-.03v.42h-1.38c.03-.31.03-.81.03-1.19"/>
          <path class="cls-6" d="M19.44,50.57l.43-.06c-.05.45.08.68.36.68.23,0,.37-.16.37-.37,0-.6-1.18-.85-1.17-1.68,0-.4.28-.73.79-.73.48,0,.81.3.76.9l-.43.06c.03-.36-.09-.55-.34-.55-.21,0-.34.14-.34.32,0,.55,1.17.82,1.17,1.67,0,.41-.27.79-.83.79-.48,0-.84-.3-.79-1.02"/>
          <path class="cls-6" d="M22.97,48.89c-.18-.02-.41-.02-.64-.03v1.48c0,.38,0,.87.03,1.19h-.48c.03-.31.03-.81.03-1.19v-1.48c-.23,0-.46,0-.64.03v-.42h1.71v.42Z"/>
          <path class="cls-6" d="M37.65,48.87c-.25,0-.38.21-.35.58l-.43-.06c-.04-.6.3-.92.79-.92.52,0,.8.35.8.76s-.31.76-.56,1.09c-.22.29-.47.56-.55.83h.13c.33,0,.7,0,.97-.03v.46h-1.58c-.04-.52.33-1.04.68-1.5.24-.32.47-.6.47-.86,0-.2-.14-.35-.35-.35"/>
          <path class="cls-6" d="M38.81,49.93c0-.97.31-1.46.91-1.46s.91.49.91,1.46v.26c0,.97-.31,1.46-.91,1.46s-.91-.49-.91-1.46v-.26ZM39.73,48.87c-.32,0-.46.29-.46.97v.44c0,.68.14.97.46.97s.46-.29.46-.97v-.44c0-.68-.14-.97-.46-.97"/>
          <path class="cls-6" d="M41.74,48.87c-.25,0-.38.21-.35.58l-.43-.06c-.04-.6.3-.92.79-.92.52,0,.8.35.8.76s-.31.76-.56,1.09c-.22.29-.47.56-.55.83h.13c.33,0,.7,0,.97-.03v.46h-1.58c-.04-.52.33-1.04.68-1.5.24-.32.47-.6.47-.86,0-.2-.14-.35-.35-.35"/>
          <path class="cls-6" d="M42.8,49.67c.09-.34.18-.77.23-1.14h1c-.03.31-.03.81-.03,1.19v.74c.13,0,.25,0,.35-.02v.45c-.1,0-.22-.01-.35-.02,0,.26,0,.52.03.72h-.49c.02-.2.02-.46.03-.73h-1.06c.1-.34.2-.8.3-1.19M43.15,50.47h.4v-1.57h-.19l-.34,1.57h.12Z"/>
        </g>
      </g>
    </g>
  </g>
</svg>